# xmcd
#
# Track frame offsets:
#	183
#	11588
#	22578
#	34268
#	49013
#	60328
#	72958
#	85425
#	98233
#	110815
#	127048
#	148105
#	164283
#	177418
#	193135
#	204403
#	216048
#	229418
#	240100
#	252345
#
# Disc length: 3499 seconds
#
# Revision: 1
# Processed by: cddbd v1.4PL0 Copyright (c) Steve Scherf et al.
# Submitted via: audiograbber 1.81.03
#
DISCID=190da914
DTITLE=Various Artist - Sweet Soul and Blues Ballads
DYEAR=1900
DGENRE=Soul
TTITLE0=Sam and Dave - Soul Man
TTITLE1=Screaming Jay Hawkins - I Put A Spell On You
TTITLE2=Erma Franklin - Take Al Little Piece Of My Heart
TTITLE3=Al Green - Let압 Stay Together
TTITLE4=John Lee Hooker - Boom Boom
TTITLE5=Dinah Washington - Mad About The Boy
TTITLE6=Bob and Earl - Harlem Shuffle
TTITLE7=Muddy Waters - Hoochie Coochie Man
TTITLE8=Fontella Bass - Rescue Me
TTITLE9=James Brown - It압 A Man압 Man압 World
TTITLE10=Buddy Guy - Mustang Sally
TTITLE11=Nina Simone - My Baby Just Cares For Me
TTITLE12=Percy Sledge - When A Man Loves A Woman
TTITLE13=B.B.King - Ain앖 Nobody Home
TTITLE14=Otis Redding - These Arms Of Mine
TTITLE15=The Drifters - Under The Boardwalk
TTITLE16=Ben E. King - Stand By Me
TTITLE17=Howlin' Wolf - Little Red Rooster
TTITLE18=Sam Cooke - You Send Me
TTITLE19=Aretha Franklin - Think
EXTD=
EXTT0=
EXTT1=
EXTT2=
EXTT3=
EXTT4=
EXTT5=
EXTT6=
EXTT7=
EXTT8=
EXTT9=
EXTT10=
EXTT11=
EXTT12=
EXTT13=
EXTT14=
EXTT15=
EXTT16=
EXTT17=
EXTT18=
EXTT19=
PLAYORDER=
